<svg version="1.2" xmlns="http://www.w3.org/2000/svg" viewBox="0 0 1280 120" width="1280" height="120"><style>.a{fill:none;stroke:#000;stroke-linecap:round;stroke-linejoin:round;stroke-width:6.3}</style><path fill-rule="evenodd" class="a" d="m0 54.9c8 4.9 21.8 3.9 30.6 4 19.4 0.1 38.8 0 58.2 0 80.7 0 160.9 0.1 241.5 5.3 48.6 3.1 97 7.6 145.8 6.6 25.3-0.5 50.2-4.2 75.3-6.3 43.1-3.6 87.3-4.7 130.6-4.6 67.7 0.2 135.6 12.9 203.4 9.9 30.7-1.4 59.3-17.7 90-17.8 22.7-0.1 41.9 17.6 68.4 19.5 29.9 2.2 59.5-1.5 89.3-2.5 50.2-1.7 100.6-1.1 150.9-1.1"/></svg>