<svg version="1.2" xmlns="http://www.w3.org/2000/svg" viewBox="0 0 400 320" width="400" height="320"><style></style><path  d="m179.5 140.5c-1.9 4.1-2.9 5.3-4 4.8-0.8-0.5-2.3-2.4-3.2-4.3-1.2-2.4-2.6-3.6-4.3-3.8-1.5-0.2-3.6 0.6-5 1.7l-2.5 2c4.2 8.2 6 12.3 6.7 14.4 1.2 3.6 1.1 4-0.7 5.3-1.1 0.8-4 1.4-6.5 1.4-2.5 0-6.5-0.7-9-1.5-2.5-0.8-6.4-1.5-8.7-1.5-2.3 0-4.9 0.7-5.7 1.5-0.9 0.8-1.6 2.4-1.6 3.5 0 1.1 0.7 2.7 1.5 3.5 0.8 0.8 3.2 1.9 5.2 2.4 2.1 0.5 7.9 1.2 12.8 1.6 4.9 0.3 10.3 0.9 12 1.2l3 0.6c-1.4 16.4-2.5 21.3-4.6 26.4-1.6 4-2.9 8.2-2.9 9.3 0 1.1 0.4 2.2 1 2.5 0.6 0.3 1.4 2.8 2 5.5 0.6 2.8 1.6 5.3 2.2 5.6 0.7 0.3 2.3 0.1 3.5-0.5 1.8-0.8 2.5-2.5 3.3-6.8 0.6-3.2 1.4-7.1 1.8-8.6 0.4-1.6 1.1-2.9 1.7-3 0.6-0.1 1.3 2.6 1.8 5.8 0.4 3.3 1.6 7.9 2.7 10.3 1.1 2.3 2.9 4.4 4 4.7 1.1 0.3 2.7-0.1 3.5-0.8 1-0.7 1.6-2.7 1.5-5 0-2-0.7-5.4-1.6-7.5-0.8-2-2.2-9.3-3-16.2-1.2-11.1-1.2-12.8 0.1-14.8 0.8-1.2 2.3-2.2 3.2-2.2 1 0 3.8 0.8 6.3 1.9 2.5 1.2 5.8 2.1 7.5 2.1 1.7 0 3.8-0.8 5-1.9 1.5-1.6 1.7-2.4 0.9-3.3-0.7-0.7-3.5-2.5-6.3-4.1-2.8-1.5-6-2.7-7.1-2.7-1.1 0-2.3-0.6-2.6-1.3-0.3-0.6 0.6-3.5 1.9-6.2 1.4-2.8 4.8-8.8 7.6-13.5 2.8-4.7 5.1-9.5 5.1-10.8 0-1.9-0.5-2.2-3.5-2.2-2.2 0-4.2 0.7-5.3 1.9-0.9 1.1-4.2 6-7.2 11-3 5-6.1 9.1-6.8 9.1-0.6 0-1.2-1-1.2-2.2 0-1.3 0.7-4.3 1.5-6.8 0.8-2.5 1.5-6.6 1.5-9.2 0-4.4-0.2-4.8-2.5-4.8-2.1 0-3 1-5 5.5z"/></svg>